PathFileType	4	(X/Y/Z)	Kaydara																																																																																																																									
DataRate	CameraRate	NumFrames	NumMarkers	Units	OrigDataRate	OrigDataStartFrame	OrigNumFrames																																																																																																																					
30	30	6	41	mm	30	43	321																																																																																																																					
Frame#	Time	PAIB_LFHD			PAIB_RFHD			PAIB_LBHD			PAIB_RBHD			PAIB_LFTShould			PAIB_RFTShould			PAIB_LRRShould			PAIB_RRRShould			PAIB_T10			PAIB_STRN			PAIB_TRUN			PAIB_LSHO			PAIB_LUPA			PAIB_LELB			PAIB_LFRM			PAIB_LWRA			PAIB_LWRB			PAIB_LFIN			PAIB_RSHO			PAIB_RUPA			PAIB_RELB			PAIB_RFRM			PAIB_RWRA			PAIB_RWRB			PAIB_RFIN			PAIB_LFWT			PAIB_RFWT			PAIB_LBWT			PAIB_RBWT			PAIB_LTHI			PAIB_LKNE			PAIB_LSHN			PAIB_LANK			PAIB_LHEE			PAIB_LTOE			PAIB_RTHI			PAIB_RKNE			PAIB_RSHN			PAIB_RANK			PAIB_RHEE			PAIB_RTOE		
		X1	Y1	Z1	X2	Y2	Z2	X3	Y3	Z3	X4	Y4	Z4	X5	Y5	Z5	X6	Y6	Z6	X7	Y7	Z7	X8	Y8	Z8	X9	Y9	Z9	X10	Y10	Z10	X11	Y11	Z11	X12	Y12	Z12	X13	Y13	Z13	X14	Y14	Z14	X15	Y15	Z15	X16	Y16	Z16	X17	Y17	Z17	X18	Y18	Z18	X19	Y19	Z19	X20	Y20	Z20	X21	Y21	Z21	X22	Y22	Z22	X23	Y23	Z23	X24	Y24	Z24	X25	Y25	Z25	X26	Y26	Z26	X27	Y27	Z27	X28	Y28	Z28	X29	Y29	Z29	X30	Y30	Z30	X31	Y31	Z31	X32	Y32	Z32	X33	Y33	Z33	X34	Y34	Z34	X35	Y35	Z35	X36	Y36	Z36	X37	Y37	Z37	X38	Y38	Z38	X39	Y39	Z39	X40	Y40	Z40	X41	Y41	Z41
																																																																																																																												
41	1.393	236.36351	1635.2121	-1876.10764	53.20319	1644.21555	-1887.11304	253.74535	1668.46268	-2001.38214	50.70961	1683.72513	-1996.45355	211.01284	1422.03506	-1966.59729	88.35071	1420.02319	-1964.95712	220.40758	1489.52316	-2106.9133	63.52895	1488.40195	-2096.49567	137.94233	1334.43954	-2190.13428	157.81712	1354.37134	-1931.25488	157.15097	1251.96053	-1913.58063	341.21502	1430.03815	-2036.6243	386.57761	1200.27679	-2023.35571	404.13296	1111.18752	-2056.94733	412.7137	999.84024	-2005.16861	340.52303	895.25307	-1919.49524	385.37746	869.81766	-1978.11996	389.57623	839.22615	-1912.74139	-41.50582	1420.26688	-2010.12695	-104.42959	1243.55942	-2037.0343	-122.61601	1123.67172	-2041.55563	-123.3708	988.4742	-1999.88281	-38.08806	894.2131	-1913.26324	-113.27927	873.89267	-1944.10995	-88.62266	843.40012	-1880.30029	257.48455	972.1991	-1945.68298	21.30535	974.64195	-1939.14886	191.19501	1024.95842	-2159.62891	46.9001	1028.07373	-2152.47742	242.36925	745.54436	-2155.15213	285.7362	495.79239	-2060.57465	271.58108	310.3211	-2061.53931	278.00005	129.77954	-2158.18695	222.2538	120.3166	-2204.99283	271.5687	74.97218	-1985.71747	-5.25286	728.71025	-2147.76428	-4.92033	485.53646	-2071.82678	56.75779	301.95766	-2062.96341	30.97065	104.88337	-2155.46036	93.8619	113.50553	-2205.14771	46.60099	76.76837	-1981.85791
42	1.427	236.01431	1635.19897	-1875.44388	52.81436	1644.11728	-1886.39084	253.3577	1668.34732	-2000.6456	50.32477	1683.59497	-1995.71716	210.67053	1421.95358	-1965.97412	88.08513	1419.78088	-1964.3985	220.05064	1489.60175	-2106.1972	63.20313	1488.38318	-2095.8078	137.67463	1334.52606	-2189.53857	157.58279	1354.27628	-1930.69397	156.97494	1251.90193	-1913.07922	340.8807	1430.09583	-2035.98724	385.06355	1200.8429	-2026.58554	403.97068	1111.31165	-2056.50818	412.62737	999.94362	-2004.77249	340.45238	895.34004	-1919.13727	385.30704	869.89769	-1977.7478	389.52068	839.29878	-1912.34604	-41.72662	1420.1474	-2009.47144	-104.711	1243.43681	-2036.40793	-122.94082	1123.60443	-2040.99426	-123.71961	988.41621	-1999.31046	-38.38825	894.14429	-1912.64252	-113.66174	873.80821	-1943.5466	-88.95811	843.33511	-1879.70749	257.29332	972.10854	-1945.45731	21.17218	974.50752	-1938.89236	191.01845	1025.01472	-2159.32053	46.72151	1028.0265	-2152.15973	242.28149	745.5275	-2154.96368	285.6665	495.80086	-2060.43106	271.52332	310.33705	-2061.47293	277.95599	129.81059	-2158.10547	222.21792	120.33529	-2204.94904	271.56624	74.96393	-1985.7048	-5.24296	728.64883	-2147.43271	-4.8722	485.50552	-2071.54755	56.76879	302.02667	-2062.90314	30.8535	104.99213	-2155.56122	93.9076	113.56502	-2205.1001	46.63814	76.75566	-1981.83533
43	1.46	235.68027	1635.23544	-1874.7319	52.49421	1644.02771	-1885.53268	252.86369	1668.35785	-1999.8761	49.86348	1683.50891	-1994.93774	210.26333	1421.79901	-1965.29877	87.77417	1419.673	-1963.63037	219.70459	1489.68826	-2105.55084	62.87669	1488.35175	-2095.05646	137.41959	1334.58008	-2188.93341	157.36857	1354.12613	-1930.10437	156.85778	1251.79703	-1912.49893	340.55496	1430.15106	-2035.35599	385.06557	1200.98228	-2025.85403	403.80901	1111.38046	-2056.06277	412.48055	999.99336	-2004.38309	340.40359	895.33569	-1918.77762	385.21965	869.9115	-1977.39136	389.42543	839.28177	-1911.98502	-41.97402	1419.98672	-2008.76984	-104.94505	1243.26073	-2035.78033	-123.15057	1123.35693	-2040.31311	-124.0418	988.25226	-1998.77594	-38.70803	893.92456	-1912.01126	-114.06741	873.69675	-1943.07709	-89.40481	843.1736	-1879.18777	257.26383	972.16057	-1945.159	21.07213	974.48265	-1938.44635	190.80433	1024.96948	-2159.00024	46.52092	1027.99011	-2151.8222	242.1653	745.52277	-2154.7818	285.55307	495.74352	-2060.31769	271.48281	310.31025	-2061.42776	277.91128	129.72681	-2158.15231	222.1703	120.36882	-2204.93011	271.57497	74.97929	-1985.70923	-5.36105	728.64136	-2147.16995	-4.91066	485.46631	-2071.42303	56.75416	301.97205	-2062.91412	31.14977	104.78479	-2155.25055	93.91193	113.58702	-2205.09201	46.65389	76.73472	-1981.7894
44	1.493	235.20391	1635.24521	-1873.8649	51.89437	1643.91205	-1884.77936	252.35968	1668.44696	-1999.02466	49.38756	1683.38974	-1994.09744	210.05287	1421.66748	-1964.70367	87.51411	1419.57932	-1962.93701	219.40088	1489.68933	-2104.82178	62.54034	1488.29437	-2094.26697	137.15503	1334.61731	-2188.28049	157.14832	1353.94287	-1929.56665	156.63042	1251.59355	-1912.04742	340.24551	1430.13657	-2034.75143	384.7118	1201.09367	-2025.50018	403.56838	1111.39626	-2055.69672	412.33925	999.9955	-2004.0683	340.32604	895.22118	-1918.53012	385.18448	869.96635	-1977.17377	389.42383	839.27483	-1911.81091	-42.23972	1419.81735	-2008.11172	-105.12748	1243.09845	-2035.18097	-123.3802	1123.25371	-2039.8674	-124.25448	988.06969	-1998.33267	-39.00172	893.7114	-1911.63239	-114.32413	873.47527	-1942.64557	-89.75924	842.92992	-1878.76572	257.08355	972.02766	-1944.87869	20.86747	974.21463	-1938.16101	190.56618	1024.96552	-2158.66074	46.27665	1028.05038	-2151.39389	241.90462	745.51414	-2154.52164	285.49776	495.72697	-2060.14008	271.44827	310.34029	-2061.34537	277.87973	129.80706	-2158.14774	222.10876	120.34613	-2204.89624	271.57955	74.97864	-1985.70358	-5.6509	728.64548	-2146.98318	-5.10243	485.43789	-2071.39252	56.65758	301.94571	-2062.74628	30.80994	104.97477	-2155.54672	93.89635	113.58558	-2205.08377	46.66807	76.7487	-1981.74347
45	1.527	234.77468	1635.25909	-1872.96143	51.43528	1643.74649	-1883.93311	251.8763	1668.42545	-1998.13934	48.95183	1683.19946	-1993.23624	209.85136	1421.4119	-1964.12735	87.22965	1419.26773	-1962.39853	219.09634	1489.69101	-2104.10263	62.20712	1488.22006	-2093.47458	136.85007	1334.68277	-2187.61627	156.86467	1353.6821	-1929.05701	156.47169	1251.32248	-1911.57608	339.91173	1430.04715	-2034.12827	384.47388	1201.00815	-2025.09247	403.29487	1111.34125	-2055.39902	412.15988	999.9231	-2003.84491	340.33203	895.15572	-1918.11493	385.00252	869.83147	-1976.93817	389.39617	839.15642	-1911.63574	-42.50805	1419.56818	-2007.39685	-105.28316	1242.85027	-2034.57306	-123.50912	1123.0352	-2039.35486	-124.39905	987.81105	-1997.83981	-39.16365	893.46519	-1911.1261	-114.47357	873.22083	-1942.3027	-89.94907	842.57515	-1878.33694	256.89966	971.91536	-1944.62509	20.66411	974.19998	-1937.7272	190.29692	1025.07843	-2158.30978	46.04646	1028.09029	-2150.98572	241.691	745.54375	-2154.25369	285.35042	495.7085	-2059.94598	271.35237	310.31448	-2061.24771	277.87735	129.84661	-2158.10577	222.13037	120.40657	-2204.86603	271.5719	74.95864	-1985.69931	-5.85408	728.66447	-2146.71951	-5.16432	485.40649	-2071.12274	56.65258	301.97559	-2062.63763	30.90703	104.96927	-2155.448	93.89585	113.63605	-2205.05753	46.6859	76.71263	-1981.71829
46	1.56	234.19107	1635.22736	-1871.97205	50.92151	1643.59131	-1883.09402	251.48375	1668.36533	-1997.22702	48.44222	1682.99713	-1992.42813	209.60321	1421.21246	-1963.43246	86.98442	1418.14606	-1962.8627	218.73905	1489.7496	-2103.33374	61.89286	1488.14041	-2092.69501	136.50122	1334.79172	-2187.01141	156.48535	1353.7056	-1928.7735	156.30905	1250.97862	-1911.13281	339.6143	1429.98199	-2033.48801	384.30183	1201.0183	-2024.70856	403.02116	1111.30516	-2055.15503	411.93066	999.82101	-2003.68927	340.10876	894.90799	-1918.03345	384.86198	869.70757	-1976.86127	389.31095	839.02199	-1911.56586	-42.76259	1419.2807	-2006.62918	-105.41881	1242.57607	-2034.01398	-123.54283	1122.74002	-2038.86581	-124.45551	987.5396	-1997.4826	-39.20995	893.20847	-1910.78705	-114.45206	872.89345	-1941.97052	-89.95603	842.24014	-1878.0275	256.70837	971.91315	-1944.35837	20.37915	974.04045	-1937.34207	189.98268	1025.07401	-2157.93747	45.71898	1028.02719	-2150.59723	241.45519	745.59303	-2154.02344	285.23645	495.69847	-2059.84833	271.32206	310.32528	-2061.2175	277.83524	129.98774	-2158.06351	222.05095	120.43505	-2204.84207	271.57797	74.94571	-1985.69214	-5.95075	728.62625	-2146.35468	-5.25493	485.35587	-2070.82916	56.58722	301.90485	-2062.50809	30.93922	104.97532	-2155.40039	93.88502	113.65915	-2205.02884	46.70416	76.71298	-1981.70837
